<?xml version="1.0" standalone="no"?>
<!DOCTYPE svg PUBLIC "-//W3C//DTD SVG 20010904//EN"
 "http://www.w3.org/TR/2001/REC-SVG-20010904/DTD/svg10.dtd">
<svg version="1.0" xmlns="http://www.w3.org/2000/svg"
 width="136.000000pt" height="136.000000pt" viewBox="0 0 136.000000 136.000000"
 preserveAspectRatio="xMidYMid meet">
<metadata>
Created by potrace 1.14, written by Peter Selinger 2001-2017
</metadata>
<g transform="translate(0.000000,136.000000) scale(0.100000,-0.100000)"
fill="#000000" stroke="none">
<path d="M595 1100 c-202 -22 -366 -89 -467 -191 -77 -77 -102 -132 -102 -229
0 -97 24 -150 101 -227 258 -258 848 -262 1110 -7 280 273 12 623 -502 657
-38 2 -101 1 -140 -3z m321 -76 c415 -107 513 -429 189 -614 -135 -77 -276
-106 -474 -97 -189 8 -334 59 -453 160 -61 51 -108 141 -108 207 0 70 48 159
117 215 57 47 175 108 228 119 l30 7 -3 -75 c-3 -68 -6 -75 -25 -78 -19 -3
-22 -9 -22 -48 0 -38 3 -45 21 -48 21 -3 22 -8 26 -177 3 -157 5 -177 24 -202
24 -32 84 -55 129 -51 28 3 30 6 33 46 3 41 4 42 41 42 26 0 44 7 57 21 l18
20 8 -20 c6 -18 16 -21 68 -21 48 0 60 3 60 16 0 14 2 14 22 0 38 -27 103 -21
140 13 l33 29 0 111 c0 108 -1 110 -29 140 -25 26 -37 31 -77 31 -29 0 -51 -6
-59 -15 -24 -28 -30 -15 -30 65 l0 80 -65 0 -65 0 0 -86 0 -85 -26 20 c-55 43
-136 17 -160 -51 l-12 -33 -1 52 -1 52 38 3 c37 3 37 3 37 48 0 45 0 45 -37
48 l-37 3 -3 72 -3 72 -45 6 c-38 4 -41 6 -20 12 46 12 75 14 206 16 112 1
147 -3 230 -25z m-188 -320 c20 -14 22 -24 22 -103 0 -54 -4 -91 -12 -99 -17
-17 -84 -15 -102 4 -20 20 -23 162 -3 186 23 30 62 35 95 12z m264 -11 c25
-22 26 -157 1 -185 -20 -22 -70 -23 -95 -1 -25 22 -26 157 -1 185 20 22 70 23
95 1z m-404 -231 c19 -6 14 -22 -7 -22 -22 0 -31 19 -30 63 l1 32 12 -34 c7
-19 18 -37 24 -39z"/>
</g>
</svg>
