<?xml version="1.0" standalone="no"?>
<!DOCTYPE svg PUBLIC "-//W3C//DTD SVG 20010904//EN"
 "http://www.w3.org/TR/2001/REC-SVG-20010904/DTD/svg10.dtd">
<svg version="1.0" xmlns="http://www.w3.org/2000/svg"
 width="547.000000pt" height="547.000000pt" viewBox="0 0 547.000000 547.000000"
 preserveAspectRatio="xMidYMid meet">
<metadata>
Created by potrace 1.14, written by Peter Selinger 2001-2017
</metadata>
<g transform="translate(0.000000,547.000000) scale(0.100000,-0.100000)"
fill="#000000" stroke="none">
<path d="M1005 4829 c-10 -15 -13 -59 -5 -59 4 0 6 -29 6 -65 -1 -36 1 -65 4
-65 3 0 7 -15 8 -32 1 -18 4 -58 7 -88 3 -30 7 -73 9 -95 2 -22 5 -40 6 -40 3
0 9 -41 15 -99 3 -32 8 -63 11 -67 7 -11 30 -1 32 14 0 7 3 23 7 37 10 40 16
82 18 128 1 23 4 42 8 42 4 0 7 12 7 28 2 54 9 109 16 120 5 8 22 2 55 -18 27
-17 53 -30 60 -30 6 0 11 -4 11 -10 0 -5 4 -10 10 -10 9 0 72 -39 97 -60 7 -6
24 -15 38 -20 14 -5 25 -14 25 -19 0 -5 8 -11 18 -15 18 -6 54 -27 62 -37 3
-3 41 -30 85 -60 44 -29 85 -57 90 -61 6 -5 53 -40 105 -80 106 -80 220 -170
241 -190 8 -7 37 -31 64 -53 28 -21 60 -48 71 -59 12 -12 50 -46 85 -76 35
-30 81 -72 102 -92 21 -21 40 -38 42 -38 2 0 29 -24 60 -52 31 -29 59 -51 62
-50 3 2 9 -2 14 -9 4 -8 11 -11 14 -7 4 3 -3 26 -16 50 -12 23 -27 53 -33 65
-6 13 -14 23 -18 23 -5 0 -8 5 -8 11 0 6 -18 38 -40 70 -22 32 -40 63 -40 69
0 5 -4 10 -8 10 -4 0 -15 12 -24 28 -19 30 -37 54 -118 151 -66 80 -290 301
-304 301 -3 0 -16 10 -28 23 -13 12 -39 33 -57 47 -19 14 -39 30 -45 35 -6 6
-29 22 -51 35 -22 13 -42 27 -45 30 -7 8 -100 70 -105 70 -3 0 -33 17 -68 39
-35 21 -73 42 -85 45 -12 4 -22 12 -22 17 0 5 -5 9 -12 9 -6 0 -41 14 -77 31
-91 42 -113 52 -211 89 -47 17 -95 36 -108 41 -29 11 -29 11 -37 -2z"/>
<path d="M4414 4639 c-3 -6 -11 -8 -17 -6 -7 2 -24 -2 -39 -10 -16 -7 -28 -11
-28 -9 0 3 -19 -2 -42 -10 -24 -9 -50 -17 -58 -19 -8 -2 -28 -9 -45 -16 -16
-7 -35 -13 -41 -14 -6 0 -22 -8 -37 -18 -14 -9 -33 -17 -41 -17 -8 0 -16 -5
-18 -11 -2 -5 -10 -11 -18 -12 -8 -2 -21 -7 -29 -12 -33 -20 -119 -64 -122
-62 -2 1 -3 0 -2 -2 1 -2 -28 -22 -65 -44 -37 -22 -68 -44 -70 -49 -2 -4 -8
-8 -14 -8 -5 0 -15 -6 -22 -12 -8 -7 -24 -20 -36 -28 -13 -8 -32 -23 -42 -32
-10 -10 -18 -16 -18 -13 0 3 -13 -8 -30 -25 -16 -16 -32 -30 -35 -30 -14 0
-285 -283 -285 -298 0 -4 -9 -14 -19 -22 -11 -7 -18 -17 -15 -22 3 -4 -2 -11
-10 -14 -9 -3 -14 -10 -11 -14 3 -4 -2 -11 -11 -14 -9 -4 -14 -9 -11 -12 5 -5
-10 -27 -39 -58 -6 -7 -15 -22 -18 -34 -4 -12 -12 -22 -17 -22 -5 0 -9 -6 -9
-13 0 -7 -8 -22 -17 -33 -10 -11 -19 -26 -21 -34 -2 -8 -10 -22 -18 -31 -8 -9
-11 -18 -8 -22 4 -3 -1 -13 -10 -22 -18 -18 -22 -55 -6 -55 5 0 15 9 22 20 7
11 17 20 22 20 5 0 22 14 38 30 15 17 33 30 39 30 5 0 7 5 4 10 -3 6 -1 10 6
10 6 0 24 12 39 28 15 15 45 41 66 58 21 18 60 52 87 76 26 24 47 42 47 39 0
-3 7 5 16 17 8 12 20 20 25 17 5 -4 9 -1 9 5 0 13 30 46 30 33 0 -4 5 0 11 10
5 9 17 17 24 17 8 0 15 7 15 15 0 8 4 15 9 15 5 0 26 15 45 34 20 18 36 31 36
28 0 -3 6 1 13 9 6 9 34 33 62 55 27 21 61 49 75 62 14 13 37 31 53 40 15 9
27 20 27 24 0 4 7 8 15 8 8 0 15 4 15 9 0 5 15 19 34 32 19 13 32 28 29 33 -4
5 0 7 9 4 8 -4 20 2 27 14 7 11 15 18 17 15 3 -3 19 8 37 24 17 16 33 27 35
24 3 -2 13 6 23 18 10 12 18 19 19 15 0 -3 13 6 28 20 16 15 69 56 118 92 48
36 95 71 104 78 48 42 76 62 86 62 7 0 14 6 17 14 6 16 -30 29 -39 15z"/>
<path d="M128 4085 c-29 -12 -47 -35 -41 -52 8 -20 9 -433 1 -433 -4 0 -5 -6
-2 -14 8 -21 10 -466 2 -466 -4 0 -5 -6 -2 -14 8 -21 10 -466 2 -466 -4 0 -5
-6 -2 -14 8 -21 10 -466 2 -466 -4 0 -5 -6 -2 -14 9 -23 10 -466 1 -466 -5 0
-5 -5 -2 -11 4 -6 7 -55 7 -109 -1 -67 3 -102 11 -107 7 -4 136 -8 287 -9 246
-1 315 -4 400 -18 43 -7 114 -17 145 -21 17 -2 41 -7 55 -10 14 -4 45 -8 69
-11 59 -7 65 -8 71 -16 4 -4 24 -10 47 -13 22 -3 59 -12 83 -20 23 -8 51 -15
61 -15 11 0 27 -4 37 -9 9 -5 51 -20 92 -33 41 -12 78 -27 82 -33 4 -5 8 -6 8
-1 0 5 7 3 15 -4 8 -7 15 -10 15 -7 0 3 21 -3 48 -14 26 -11 56 -24 67 -29 69
-28 113 -49 220 -102 66 -33 122 -63 125 -67 3 -4 17 -12 33 -19 47 -20 354
-226 432 -290 6 -4 27 -18 47 -30 20 -13 38 -27 40 -33 2 -5 17 -11 33 -12
l30 -2 0 1125 c1 766 -2 1131 -10 1144 -5 11 -17 27 -25 37 -8 9 -31 39 -50
65 -32 44 -74 95 -107 130 -7 7 -13 17 -13 23 0 6 -7 11 -15 11 -8 0 -15 5
-15 10 0 17 -179 190 -291 281 -22 19 -49 41 -60 50 -11 9 -35 27 -54 40 -19
13 -35 27 -35 32 0 4 -5 7 -12 7 -6 0 -26 11 -44 25 -18 14 -37 25 -42 25 -6
0 -12 3 -14 8 -4 9 -65 52 -74 52 -3 0 -19 9 -35 21 -16 11 -29 17 -29 13 0
-4 -8 0 -17 8 -23 19 -216 114 -225 110 -5 -1 -8 3 -8 8 0 6 -7 10 -15 10 -8
0 -31 7 -52 16 -21 9 -47 21 -58 25 -30 13 -107 40 -130 46 -11 2 -27 7 -35
10 -25 10 -34 12 -75 22 -22 5 -74 18 -115 29 -41 11 -97 23 -125 27 -27 3
-68 10 -90 15 -22 4 -78 11 -125 14 -47 4 -112 9 -145 13 -97 10 -353 9 -377
-2z m552 -429 c14 -3 25 -5 25 -6 0 -3 38 -9 82 -13 23 -3 46 -7 51 -11 5 -3
24 -7 43 -10 19 -2 56 -12 82 -21 27 -9 51 -14 54 -11 3 3 19 -2 35 -10 17 -9
42 -18 56 -20 15 -3 33 -11 41 -17 8 -7 16 -11 17 -10 9 6 64 -10 64 -18 0 -5
7 -9 16 -9 22 0 324 -150 324 -161 0 -5 6 -9 12 -9 14 0 121 -70 126 -82 2 -5
8 -8 13 -8 9 0 68 -42 105 -75 6 -5 40 -35 75 -65 87 -74 230 -220 296 -304
l33 -41 0 -682 c0 -437 -4 -683 -10 -683 -6 0 -10 5 -10 11 0 5 -4 7 -10 4 -5
-3 -10 -1 -10 6 0 7 -3 10 -6 6 -3 -3 -27 7 -52 22 -50 29 -177 91 -186 91 -4
0 -30 12 -59 26 -28 14 -59 27 -67 29 -8 2 -51 18 -95 36 -44 18 -89 35 -100
39 -11 4 -36 13 -55 19 -19 7 -51 17 -70 21 -19 5 -66 18 -105 29 -38 12 -92
26 -118 31 -27 5 -52 12 -55 14 -4 2 -24 7 -44 10 -21 3 -57 10 -80 15 -24 6
-65 13 -93 16 -27 3 -70 10 -95 15 -25 5 -88 12 -140 16 -52 3 -106 7 -120 9
-14 1 -45 3 -70 4 -25 1 -51 5 -59 10 -12 8 -14 146 -15 891 -1 485 2 884 7
887 4 2 5 8 2 13 -5 8 108 5 165 -4z"/>
<path d="M4819 3915 c-2 -1 -40 -6 -84 -10 -153 -13 -250 -28 -330 -50 -52
-14 -105 -28 -117 -29 -3 -1 -10 -4 -14 -8 -4 -5 -15 -8 -25 -8 -10 0 -33 -6
-51 -14 -18 -8 -68 -27 -110 -42 -43 -16 -78 -32 -78 -37 0 -4 -4 -6 -8 -3 -9
5 -192 -83 -243 -117 -14 -9 -29 -14 -32 -10 -4 3 -7 1 -7 -5 0 -6 -15 -19
-32 -28 -18 -9 -35 -20 -38 -23 -3 -3 -17 -12 -32 -20 -15 -8 -37 -23 -48 -33
-11 -10 -20 -16 -20 -13 0 3 -11 -6 -25 -20 -14 -14 -30 -25 -34 -25 -4 0 -20
-10 -34 -22 -14 -13 -46 -41 -72 -63 -26 -22 -70 -62 -98 -90 -29 -27 -56 -49
-62 -47 -5 2 -7 1 -3 -3 4 -4 -22 -36 -58 -71 -35 -35 -61 -64 -58 -64 3 0
-10 -16 -30 -35 -20 -19 -36 -37 -36 -40 0 -7 -19 -30 -49 -61 -13 -13 -22
-24 -19 -24 3 0 0 -27 -7 -60 -7 -33 -9 -60 -4 -60 4 0 4 -13 -1 -30 -5 -16
-5 -30 -1 -30 5 0 5 -18 1 -40 -4 -23 -3 -40 2 -40 5 0 5 -7 -1 -17 -5 -10 -5
-26 -1 -39 5 -12 6 -24 4 -27 -9 -9 -10 -107 -2 -107 5 0 4 -8 -1 -19 -6 -10
-8 -21 -4 -24 6 -6 6 -50 0 -132 -2 -22 1 -46 6 -52 5 -7 6 -13 1 -13 -5 0 -9
-16 -9 -35 0 -19 4 -35 8 -35 4 0 4 -8 0 -17 -10 -22 -10 -44 0 -60 5 -7 5
-13 0 -13 -4 0 -8 -16 -8 -35 0 -19 3 -35 7 -35 4 0 3 -12 -1 -27 -4 -16 -6
-37 -5 -48 2 -11 3 -31 4 -45 2 -72 2 -86 1 -95 0 -5 -2 -29 -4 -53 -2 -24 1
-46 5 -49 5 -2 5 -10 0 -16 -9 -12 -8 -44 1 -53 3 -3 1 -21 -3 -40 -5 -20 -4
-34 1 -34 6 0 6 -7 1 -17 -9 -21 -9 -84 2 -101 4 -7 4 -12 -1 -12 -9 0 -10
-57 -1 -65 3 -3 2 -20 -2 -38 -3 -18 -2 -44 3 -60 5 -15 7 -43 5 -62 -2 -19
-1 -35 3 -35 4 0 4 -13 -1 -29 -4 -16 -6 -31 -4 -34 2 -2 5 -24 5 -48 1 -24 6
-50 12 -57 6 -7 6 -12 0 -12 -6 0 -7 -18 -3 -45 4 -24 3 -50 -1 -57 -4 -7 -3
-18 3 -25 7 -9 7 -13 -1 -13 -7 0 -10 -4 -7 -8 3 -5 6 -38 7 -75 1 -37 6 -70
11 -73 4 -3 19 6 33 20 14 15 29 26 33 26 4 0 24 16 45 35 20 18 37 32 37 29
0 -7 91 65 108 85 7 9 16 15 20 15 12 -2 92 56 92 67 0 6 4 8 9 5 5 -3 23 6
39 22 17 15 36 28 44 30 7 2 15 7 18 11 3 5 16 14 29 21 14 7 30 17 35 21 31
26 85 57 90 51 3 -3 6 -1 6 5 0 10 49 38 63 35 4 -1 7 2 7 7 0 10 79 51 97 51
6 0 13 4 15 8 6 15 318 162 343 162 8 0 16 3 18 8 3 4 38 18 79 32 40 14 76
30 80 35 4 6 8 6 8 1 0 -5 6 -3 13 3 8 6 17 8 20 4 4 -3 12 -1 19 4 11 9 34
17 83 29 6 1 24 8 40 15 17 7 34 11 39 10 5 -1 16 1 25 5 20 9 42 15 59 16 6
1 12 5 12 9 0 4 8 6 18 4 9 -1 26 2 37 8 11 6 37 11 57 13 21 2 44 6 51 11 13
8 25 11 77 18 19 2 49 9 67 14 17 5 34 7 37 3 3 -3 6 -1 6 4 0 5 15 9 33 9 17
-1 37 1 42 4 6 3 19 6 30 7 11 1 31 5 45 9 14 3 41 8 60 10 19 2 37 4 40 5 18
3 -41 23 -79 26 -25 2 -62 6 -81 9 -19 3 -136 7 -260 9 -252 3 -482 -19 -675
-66 -22 -5 -52 -11 -66 -13 -14 -2 -48 -11 -75 -20 -27 -8 -74 -23 -104 -32
-67 -20 -178 -58 -244 -84 -27 -11 -51 -17 -54 -14 -3 2 -10 -2 -16 -10 -6 -9
-22 -17 -35 -20 -14 -2 -27 -9 -31 -15 -3 -5 -15 -11 -27 -13 -12 -1 -28 -9
-37 -16 -9 -7 -16 -10 -16 -6 0 5 -9 0 -20 -10 -11 -10 -20 -15 -20 -10 0 4
-6 3 -12 -2 -7 -5 -20 -9 -28 -9 -16 1 -15 -1 -8 148 2 36 0 64 -4 61 -5 -2
-4 7 2 21 5 15 6 28 0 31 -6 3 -6 15 0 29 5 15 5 27 -3 35 -7 7 -7 11 -1 11
12 0 12 29 0 48 -4 6 -3 12 3 12 7 0 7 8 1 25 -5 14 -6 25 -2 25 4 0 7 16 7
35 0 19 -4 35 -9 35 -5 0 -5 5 0 13 11 15 11 158 0 175 -4 7 -4 12 1 12 10 0
10 91 0 106 -3 6 -4 14 0 18 10 10 9 146 -1 146 -6 0 -5 5 1 11 7 7 8 20 3 34
-4 12 -5 28 0 35 5 7 5 23 0 34 -4 12 -4 30 0 41 4 11 5 23 3 28 -11 18 -11
247 -1 247 6 0 9 3 5 6 -6 6 -3 11 35 56 13 14 30 36 38 49 8 12 37 44 63 71
27 26 45 48 42 48 -4 0 23 29 60 65 36 36 71 65 76 65 6 0 8 4 5 9 -3 5 1 14
9 21 8 7 15 10 15 7 0 -3 23 17 51 44 28 27 54 49 59 49 4 0 25 16 46 35 21
19 47 41 57 50 9 8 25 15 34 15 9 0 13 3 10 7 -4 3 8 15 26 26 17 11 32 18 32
16 0 -3 38 27 62 50 7 7 17 11 20 7 3 -3 13 2 22 12 9 10 41 31 71 46 30 16
58 34 62 40 4 6 8 8 8 4 0 -7 137 57 213 98 15 8 27 12 27 9 0 -3 12 0 28 8
37 20 105 48 122 50 8 2 21 6 28 10 6 5 12 6 12 3 0 -3 16 2 35 10 19 8 35 11
35 8 0 -4 6 -1 14 5 8 7 23 14 35 16 12 3 31 8 44 11 12 3 29 7 37 9 8 2 15 4
15 5 0 1 11 3 25 5 38 5 67 13 87 23 10 5 26 8 36 7 10 -2 32 1 50 6 36 11 81
20 114 22 21 2 45 17 27 17 -5 0 -38 5 -74 11 -62 9 -354 21 -361 14z"/>
<path d="M5109 3418 c-1 -2 -3 -58 -4 -126 -2 -105 0 -124 14 -130 13 -6 150
-8 247 -3 20 1 21 6 23 112 0 61 -4 119 -9 130 -10 17 -23 19 -140 19 -72 0
-131 -1 -131 -2z"/>
<path d="M4472 3351 c-9 -6 -13 -27 -11 -69 1 -34 1 -64 -2 -66 -2 -2 -2 -62
1 -133 l5 -128 200 -1 c110 0 205 3 211 8 8 6 12 65 13 183 1 152 -1 177 -16
195 -16 19 -29 20 -203 20 -102 0 -191 -4 -198 -9z"/>
<path d="M4894 2827 c-2 -7 -3 -98 -2 -202 l3 -190 208 0 c159 0 210 3 216 13
10 17 8 193 -3 211 -6 9 -5 12 1 8 16 -10 9 124 -7 151 -15 22 -18 22 -213 22
-151 0 -199 -3 -203 -13z"/>
<path d="M4069 2658 c-10 -4 -20 -12 -20 -18 -1 -9 -3 -19 -9 -37 -1 -5 -2
-122 -2 -262 -1 -205 2 -255 13 -262 22 -14 597 -10 606 4 10 15 12 537 3 537
-4 0 -12 10 -19 23 l-12 23 -270 -1 c-149 0 -279 -3 -290 -7z"/>
</g>
</svg>
